REM DIRINDEX 1\4,1\2\5,1\2\6,1\3\7,1\3\8
REM DIRNAME cjc124,folder01,folder02,folder03,folder04,folder05,folder06,folder07
TITLE ""
FILE "025_Day13_Check2_Phrases.mp3" MP3
  TRACK 01 AUDIO
    TITLE "0:"
    INDEX 01 00:00:00
  TRACK 02 AUDIO
    TITLE "4:cjc124_0793"
    INDEX 01 00:00:31
  TRACK 03 AUDIO
    TITLE "0:"
    INDEX 01 00:01:46
  TRACK 04 AUDIO
    TITLE "5:cjc124_0794"
    INDEX 01 00:02:02
  TRACK 05 AUDIO
    TITLE "0:"
    INDEX 01 00:03:66
  TRACK 06 AUDIO
    TITLE "6:cjc124_0795"
    INDEX 01 00:04:09
  TRACK 07 AUDIO
    TITLE "0:"
    INDEX 01 00:05:71
  TRACK 08 AUDIO
    TITLE "5:cjc124_0796"
    INDEX 01 00:06:33
  TRACK 09 AUDIO
    TITLE "0:"
    INDEX 01 00:08:19
  TRACK 10 AUDIO
    TITLE "6:cjc124_0797"
    INDEX 01 00:08:36
  TRACK 11 AUDIO
    TITLE "0:"
    INDEX 01 00:10:06
  TRACK 12 AUDIO
    TITLE "5:cjc124_0798"
    INDEX 01 00:10:43
  TRACK 13 AUDIO
    TITLE "0:"
    INDEX 01 00:12:34
  TRACK 14 AUDIO
    TITLE "6:cjc124_0799"
    INDEX 01 00:12:54
  TRACK 15 AUDIO
    TITLE "0:"
    INDEX 01 00:14:25
  TRACK 16 AUDIO
    TITLE "5:cjc124_0800"
    INDEX 01 00:14:68
  TRACK 17 AUDIO
    TITLE "0:"
    INDEX 01 00:16:57
  TRACK 18 AUDIO
    TITLE "6:cjc124_0801"
    INDEX 01 00:17:00
  TRACK 19 AUDIO
    TITLE "0:"
    INDEX 01 00:18:54
  TRACK 20 AUDIO
    TITLE "5:cjc124_0802"
    INDEX 01 00:19:28
  TRACK 21 AUDIO
    TITLE "0:"
    INDEX 01 00:21:15
  TRACK 22 AUDIO
    TITLE "6:cjc124_0803"
    INDEX 01 00:21:35
  TRACK 23 AUDIO
    TITLE "0:"
    INDEX 01 00:22:74
  TRACK 24 AUDIO
    TITLE "5:cjc124_0804"
    INDEX 01 00:23:40
  TRACK 25 AUDIO
    TITLE "0:"
    INDEX 01 00:25:23
  TRACK 26 AUDIO
    TITLE "6:cjc124_0805"
    INDEX 01 00:25:43
  TRACK 27 AUDIO
    TITLE "0:"
    INDEX 01 00:26:66
  TRACK 28 AUDIO
    TITLE "5:cjc124_0806"
    INDEX 01 00:27:34
  TRACK 29 AUDIO
    TITLE "0:"
    INDEX 01 00:29:23
  TRACK 30 AUDIO
    TITLE "6:cjc124_0807"
    INDEX 01 00:29:46
  TRACK 31 AUDIO
    TITLE "0:"
    INDEX 01 00:31:04
  TRACK 32 AUDIO
    TITLE "5:cjc124_0808"
    INDEX 01 00:31:41
  TRACK 33 AUDIO
    TITLE "0:"
    INDEX 01 00:33:15
  TRACK 34 AUDIO
    TITLE "6:cjc124_0809"
    INDEX 01 00:33:32
  TRACK 35 AUDIO
    TITLE "0:"
    INDEX 01 00:35:04
  TRACK 36 AUDIO
    TITLE "5:cjc124_0810"
    INDEX 01 00:35:51
  TRACK 37 AUDIO
    TITLE "0:"
    INDEX 01 00:37:32
  TRACK 38 AUDIO
    TITLE "6:cjc124_0811"
    INDEX 01 00:37:50
  TRACK 39 AUDIO
    TITLE "0:"
    INDEX 01 00:39:35
  TRACK 40 AUDIO
    TITLE "5:cjc124_0812"
    INDEX 01 00:39:72
  TRACK 41 AUDIO
    TITLE "0:"
    INDEX 01 00:41:32
  TRACK 42 AUDIO
    TITLE "6:cjc124_0813"
    INDEX 01 00:41:55
  TRACK 43 AUDIO
    TITLE "0:"
    INDEX 01 00:43:27
  TRACK 44 AUDIO
    TITLE "5:cjc124_0814"
    INDEX 01 00:43:72
  TRACK 45 AUDIO
    TITLE "0:"
    INDEX 01 00:45:37
  TRACK 46 AUDIO
    TITLE "6:cjc124_0815"
    INDEX 01 00:45:55
  TRACK 47 AUDIO
    TITLE "0:"
    INDEX 01 00:47:30
  TRACK 48 AUDIO
    TITLE "5:cjc124_0816"
    INDEX 01 00:47:68
  TRACK 49 AUDIO
    TITLE "0:"
    INDEX 01 00:50:07
  TRACK 50 AUDIO
    TITLE "6:cjc124_0817"
    INDEX 01 00:50:25
  TRACK 51 AUDIO
    TITLE "0:"
    INDEX 01 00:52:10
  TRACK 52 AUDIO
    TITLE "5:cjc124_0818"
    INDEX 01 00:52:47
  TRACK 53 AUDIO
    TITLE "0:"
    INDEX 01 00:54:03
  TRACK 54 AUDIO
    TITLE "6:cjc124_0819"
    INDEX 01 00:54:34
  TRACK 55 AUDIO
    TITLE "0:"
    INDEX 01 00:56:08
  TRACK 56 AUDIO
    TITLE "5:cjc124_0820"
    INDEX 01 00:56:51
  TRACK 57 AUDIO
    TITLE "0:"
    INDEX 01 00:58:46
  TRACK 58 AUDIO
    TITLE "6:cjc124_0821"
    INDEX 01 00:58:66
  TRACK 59 AUDIO
    TITLE "0:"
    INDEX 01 01:00:49
  TRACK 60 AUDIO
    TITLE "5:cjc124_0822"
    INDEX 01 01:01:13
  TRACK 61 AUDIO
    TITLE "0:"
    INDEX 01 01:02:67
  TRACK 62 AUDIO
    TITLE "6:cjc124_0823"
    INDEX 01 01:03:06
  TRACK 63 AUDIO
    TITLE "0:"
    INDEX 01 01:05:01
  TRACK 64 AUDIO
    TITLE "5:cjc124_0824"
    INDEX 01 01:05:38
  TRACK 65 AUDIO
    TITLE "0:"
    INDEX 01 01:07:10
  TRACK 66 AUDIO
    TITLE "6:cjc124_0825"
    INDEX 01 01:07:27
  TRACK 67 AUDIO
    TITLE "0:"
    INDEX 01 01:08:70
